<svg xmlns="http://www.w3.org/2000/svg" viewBox="0 0 32 32">
<rect width="32" height="32" rx="7" fill="#171310"/>
<circle cx="16" cy="16" r="11.2" fill="none" stroke="#e8e4d9" stroke-width="1.1" opacity="0.55"/>
<path d="M22.35 18.86Q22.35 19.62 21.95 20.36Q21.55 21.11 20.80 21.73Q20.06 22.35 19.01 22.71Q17.95 23.08 16.63 23.08Q14.49 23.08 12.92 22.19Q11.36 21.29 10.51 19.71Q9.65 18.12 9.65 16.07Q9.65 14.53 10.16 13.22Q10.67 11.92 11.58 10.96Q12.50 9.99 13.72 9.45Q14.94 8.92 16.35 8.92Q17.24 8.92 17.79 9.07Q18.34 9.22 18.68 9.38Q19.02 9.54 19.25 9.54Q19.53 9.54 19.71 9.39Q19.89 9.24 20.07 9.10Q20.26 8.96 20.55 8.96Q20.79 8.96 20.94 9.11Q21.10 9.26 21.21 9.63L22.19 13.01Q22.28 13.31 22.12 13.54Q21.96 13.78 21.67 13.86Q21.34 13.93 21.07 13.81Q20.80 13.69 20.66 13.36Q20.17 12.21 19.59 11.57Q19.01 10.94 18.37 10.68Q17.73 10.43 17.07 10.43Q16.37 10.43 15.82 10.76Q15.27 11.10 14.89 11.73Q14.51 12.36 14.31 13.26Q14.10 14.15 14.10 15.27Q14.10 17.10 14.59 18.32Q15.08 19.54 15.95 20.15Q16.81 20.76 17.95 20.76Q18.95 20.76 19.78 20.24Q20.61 19.73 21.16 18.74Q21.32 18.43 21.51 18.34Q21.70 18.24 21.93 18.29Q22.15 18.33 22.25 18.47Q22.35 18.62 22.35 18.86" fill="#e8e4d9"/>
</svg>
